<?xml version="1.0" standalone="no"?>
<!DOCTYPE svg PUBLIC "-//W3C//DTD SVG 20010904//EN"
 "http://www.w3.org/TR/2001/REC-SVG-20010904/DTD/svg10.dtd">
<svg version="1.0" xmlns="http://www.w3.org/2000/svg"
 width="142.000000pt" height="142.000000pt" viewBox="0 0 142.000000 142.000000"
 preserveAspectRatio="xMidYMid meet">
<metadata>
Created by potrace 1.11, written by Peter Selinger 2001-2013
</metadata>
<g transform="translate(0.000000,142.000000) scale(0.100000,-0.100000)"
fill="#000000" stroke="none">
<path d="M620 1401 c-74 -40 -77 -48 -70 -193 1 -10 5 -18 9 -18 5 0 11 -14
15 -30 3 -17 17 -46 31 -65 25 -32 25 -34 6 -40 -25 -8 -44 -30 -47 -58 -4
-43 -16 -62 -47 -78 -46 -22 -62 -60 -43 -96 8 -16 15 -26 16 -23 0 3 12 32
26 65 14 33 23 47 19 30 -8 -41 -67 -165 -75 -160 -9 6 -44 -33 -110 -120 -29
-38 -58 -76 -64 -84 -9 -12 -8 -13 4 -6 8 5 -1 -10 -20 -33 -19 -22 -37 -36
-39 -30 -2 6 6 19 18 29 41 34 18 84 -28 59 -14 -7 -21 -7 -21 0 0 5 5 10 10
10 6 0 10 5 10 10 0 18 -34 11 -60 -13 -50 -44 -90 -120 -69 -132 4 -3 17 11
28 32 20 40 71 94 71 76 0 -6 -7 -13 -15 -16 -17 -7 -75 -105 -75 -128 0 -21
19 -29 45 -19 12 4 32 2 48 -7 27 -13 29 -13 50 14 51 66 115 127 186 177 42
30 93 71 115 92 38 39 38 39 19 7 -17 -28 -18 -40 -10 -80 9 -43 7 -54 -17
-104 -33 -71 -33 -75 4 -49 36 26 41 13 5 -14 -100 -75 -210 -199 -284 -321
l-43 -70 77 77 c43 43 79 78 81 78 2 0 -26 -37 -63 -82 l-67 -83 128 -3 127
-3 77 53 c42 29 88 63 102 75 14 13 28 23 33 23 4 0 -4 -10 -18 -23 -27 -22
-27 -23 -12 -72 l14 -50 104 0 c103 0 104 0 106 25 25 334 19 389 -55 471 -58
65 -64 102 -26 166 16 26 31 53 34 58 17 34 73 125 76 125 2 0 -7 -23 -21 -50
-23 -46 -25 -55 -14 -93 14 -54 40 -104 102 -197 78 -118 134 -213 153 -258
18 -47 19 -47 55 -28 24 12 28 12 43 -5 9 -11 23 -19 31 -19 44 0 -17 188 -70
212 -29 13 -35 9 -38 -21 -1 -11 -3 -21 -4 -21 -7 0 -45 93 -74 180 -17 52
-37 106 -44 120 -13 22 -14 23 -16 5 -2 -26 -12 28 -35 185 -10 69 -24 135
-31 146 -8 12 -39 31 -71 43 -31 12 -65 27 -75 35 -25 19 -30 59 -14 114 15
48 15 103 2 135 -11 26 10 21 22 -5 11 -25 10 -31 -8 -125 -11 -54 -10 -64 5
-88 9 -14 28 -30 40 -35 32 -12 87 -2 102 18 11 15 8 18 -16 25 -37 9 -40 22
-26 98 14 76 13 98 -4 138 -14 36 -35 44 -110 47 -30 1 -80 4 -110 8 -44 5
-62 3 -90 -13z m70 -341 c0 -5 -6 -10 -14 -10 -8 0 -18 5 -21 10 -3 6 3 10 14
10 12 0 21 -4 21 -10z m414 -672 c7 -30 -3 -20 -24 25 -20 41 -20 41 -1 17 11
-14 22 -33 25 -42z"/>
<path d="M118 570 c-28 -22 -64 -88 -53 -98 4 -4 14 4 24 16 9 13 31 41 50 63
36 42 23 54 -21 19z"/>
<path d="M342 454 c-41 -17 -53 -29 -91 -90 -41 -64 -41 -93 -1 -92 17 1 30 6
30 13 0 6 12 30 27 53 24 37 48 55 77 57 14 0 19 22 7 30 -11 6 -48 -10 -66
-29 -25 -26 -55 -75 -55 -90 0 -9 -4 -16 -10 -16 -17 0 -11 16 23 66 17 27 49
58 69 69 47 26 39 50 -10 29z"/>
<path d="M1230 426 c0 -3 13 -24 29 -48 16 -24 36 -65 44 -93 12 -40 16 -46
23 -31 17 43 -44 176 -82 176 -7 0 -14 -2 -14 -4z"/>
<path d="M1290 420 c0 -5 9 -24 19 -42 10 -18 22 -48 26 -66 7 -36 25 -34 25
4 0 32 -35 100 -55 107 -8 4 -15 2 -15 -3z"/>
<path d="M336 358 c-32 -32 -55 -82 -44 -94 10 -9 38 9 39 25 0 14 1 14 7 -2
7 -15 9 -16 28 -2 23 15 37 52 25 60 -5 2 -18 -5 -29 -16 -12 -11 -22 -16 -22
-12 0 4 12 17 28 29 21 18 24 25 15 35 -9 9 -19 5 -47 -23z"/>
<path d="M1040 351 c0 -6 8 -16 18 -23 22 -16 52 -63 52 -80 0 -7 -7 0 -16 17
-21 40 -44 65 -61 65 -18 0 -17 -24 2 -40 18 -15 45 -68 45 -88 0 -9 -12 7
-26 36 -14 29 -32 52 -39 52 -19 0 -24 -44 -8 -81 18 -43 22 -46 34 -29 8 12
9 12 7 -4 -2 -10 3 -21 10 -23 6 -3 12 3 12 13 0 16 1 16 14 -2 8 -10 18 -16
21 -12 4 4 15 0 23 -9 15 -14 17 -14 26 6 23 53 -47 211 -94 211 -11 0 -20 -4
-20 -9z m10 -144 c0 -12 0 -11 -24 28 l-17 30 20 -24 c12 -13 21 -28 21 -34z
m80 -22 c0 -17 -2 -17 -10 -5 -5 8 -10 24 -10 35 0 17 2 17 10 5 5 -8 10 -24
10 -35z"/>
</g>
</svg>
